<svg xmlns="http://www.w3.org/2000/svg" viewBox="0 0 64 64" role="img" aria-label="Smithsonian GVP mark">
  <circle cx="32" cy="32" r="23" fill="#1ea7cf"/>
  <path d="M32 9
           L34.2 18.5 L38.5 10.1 L38.4 20.1 L44.4 12.2 L42.2 21.9
           L49.8 15.4 L45.7 24.5 L54.6 20.1 L48.8 28.2 L58.5 26.4
           L51.4 33.4 L61.3 34.2 L52 39.2 L61.2 43 L51.3 45 L58.4 52.1
           L48.7 50.3 L54.5 58.4 L45.6 54 L49.7 63.1 L42.1 56.6
           L44.3 66.3 L38.3 58.4 L38.4 68.4 L34.1 60 L31.9 69.5
           L29.7 60 L25.4 68.4 L25.5 58.4 L19.5 66.3 L21.7 56.6
           L14.1 63.1 L18.2 54 L9.3 58.4 L15.1 50.3 L5.4 52.1
           L12.5 45 L2.6 43 L11.9 39.2 L2.7 34.2 L12.6 33.4
           L5.5 26.4 L15.2 28.2 L9.4 20.1 L18.3 24.5 L14.2 15.4
           L21.8 21.9 L19.6 12.2 L25.6 20.1 L25.5 10.1 L29.8 18.5 Z"
        fill="#f7d21e"/>
</svg>
