<svg xmlns="http://www.w3.org/2000/svg" viewBox="0 0 64 64" role="img" aria-label="USGS mark">
  <rect width="64" height="64" fill="#0b7a43"/>
  <path d="M-4 22c10-3 14 1 20 3 8 3 13 3 19-1 5-3 11-9 29-12v6c-16 3-22 8-27 11-8 5-15 5-24 2-6-2-10-6-17-3z" fill="#e6edf5"/>
  <path d="M-4 31c10-3 14 1 20 3 8 3 13 3 19-1 5-3 11-9 29-12v6c-16 3-22 8-27 11-8 5-15 5-24 2-6-2-10-6-17-3z" fill="#e6edf5"/>
  <path d="M-4 40c10-3 14 1 20 3 8 3 13 3 19-1 5-3 11-9 29-12v6c-16 3-22 8-27 11-8 5-15 5-24 2-6-2-10-6-17-3z" fill="#e6edf5"/>
</svg>
